<svg xmlns="http://www.w3.org/2000/svg" width="20.52" height="21.712" viewBox="0 0 20.52 21.712">
    <g transform="translate(.884 .75)" data-name="Iconly/Two-tone/Setting">
        <path d="m18.49 5.621-.657-1.136a2.021 2.021 0 0 0-2.752-.741h0a2.012 2.012 0 0 1-2.752-.712 1.92 1.92 0 0 1-.27-.962h0A2.015 2.015 0 0 0 10.041 0H8.718A2.005 2.005 0 0 0 6.71 2.012h0a2.015 2.015 0 0 1-2.018 1.982 1.936 1.936 0 0 1-.966-.269h0a2.021 2.021 0 0 0-2.752.741L.27 5.621A2.008 2.008 0 0 0 1 8.364h0a2.008 2.008 0 0 1 0 3.484h0a2 2 0 0 0-.73 2.733h0l.666 1.145a2.021 2.021 0 0 0 2.752.78h0a2 2 0 0 1 2.742.731 1.92 1.92 0 0 1 .27.962h0a2.015 2.015 0 0 0 2.018 2.012h1.323a2.015 2.015 0 0 0 2.018-2h0a2.005 2.005 0 0 1 2.018-2.011 2.062 2.062 0 0 1 .966.269h0a2.022 2.022 0 0 0 2.752-.731h0l.7-1.155a2 2 0 0 0-.734-2.743h0a2 2 0 0 1-.739-2.74 1.976 1.976 0 0 1 .734-.731h0a2.008 2.008 0 0 0 .734-2.739h0z" style="fill:none;stroke:#a4afb2;stroke-linecap:round;stroke-linejoin:round;stroke-miterlimit:10;stroke-width:1.5px"/>
        <ellipse cx="2.781" cy="2.772" rx="2.781" ry="2.772" transform="translate(6.604 7.334)" style="fill:none;stroke:#a4afb2;stroke-linecap:round;stroke-linejoin:round;stroke-miterlimit:10;stroke-width:1.5px"/>
    </g>
</svg>
