<svg xmlns="http://www.w3.org/2000/svg" width="30" height="30" viewBox="0 0 30 30">
    <g data-name="Group 5980">
        <path data-name="Rectangle 1828" style="fill:#fff" d="M0 0h30v30H0z"/>
        <g data-name="Group 2285" transform="translate(-13.367 -327)">
            <path data-name="Path 594" d="m24.531 4.861 1.286 1.286L6.19 25.707a24.084 24.084 0 0 1-4.275 3.4l-.366.229a.2.2 0 0 1-.272-.272l.229-.366a24.086 24.086 0 0 1 3.4-4.275z" transform="translate(15.121 325.387)" style="fill:#8f9da0"/>
            <circle data-name="Ellipse 194" cx="1.776" cy="1.776" r="1.776" transform="translate(37.634 330)" style="fill:#8f9da0"/>
            <g data-name="Group 590">
                <path data-name="Path 595" d="M87.2 40.436a10.744 10.744 0 0 0-7.96-10.444 2.6 2.6 0 0 0-1.063-.057c-.136.021-.324.054-.459.08l-.045.159a6.625 6.625 0 0 0-.779.192l-.308-.06a10.828 10.828 0 0 0-2.507 1.179l.02.163a7.006 7.006 0 0 0-.6.423l-.253.01a10.837 10.837 0 0 0-1.773 1.78l.116.091a8.66 8.66 0 0 0-.433.594l-.239.093a10.815 10.815 0 0 0-1.069 2.161l.145.034c-.094.264-.154.432-.226.7l-.2.177a10.62 10.62 0 0 0-.337 2.589 10.8 10.8 0 0 0 .209 2.167l.145-.029a6.944 6.944 0 0 0 .2.808l-.056.323a10.654 10.654 0 0 0 1.145 2.451l.134-.064c.142.22.263.4.421.612l.022.273a10.812 10.812 0 0 0 1.724 1.753l.142-.075a6.524 6.524 0 0 0 .542.4l.069.225a10.7 10.7 0 0 0 3.049 1.4l.165-.108a10.508 10.508 0 0 0 1.036.365 2.623 2.623 0 0 0 1.007-.042l.069-.018A10.744 10.744 0 0 0 87.2 40.436z" transform="translate(-50.584 301.617)" style="fill:#c3cdce"/>
            </g>
            <path data-name="Path 596" d="M244.646 28.1a10.622 10.622 0 0 0-1.782.139 10.556 10.556 0 0 1 0 20.831 10.629 10.629 0 0 0 2.783.086l.041-.153c.3-.031.449-.05.737-.1l.231.107a10.276 10.276 0 0 0 2.368-.775l-.032-.148a8.97 8.97 0 0 0 .669-.344l.2.055a10.4 10.4 0 0 0 1.26-.857l-.053-.146c.191-.153.328-.266.508-.432l.188.027c.25-.234.494-.48.72-.738l.02-.249c.17-.2.294-.357.449-.565l.119.088a10.527 10.527 0 0 0 1.22-2.13l-.062-.24c.1-.253.179-.464.264-.726l.147.027a10.559 10.559 0 0 0 .479-2.667l-.137-.275s-.005-.673-.015-.871l.148.008a10.244 10.244 0 0 0-.188-1.475l-.169-.086c-.049-.234-.1-.43-.163-.658l.131-.079a10.374 10.374 0 0 0-.4-1.147l-.2-.084c-.115-.276-.2-.45-.342-.713l.135-.06a10.475 10.475 0 0 0-1.414-2.053l-.254-.059c-.2-.23-.35-.37-.573-.582l.117-.092a10.567 10.567 0 0 0-2.23-1.606l-.308.006a8.988 8.988 0 0 0-.747-.34l.008-.156a10.526 10.526 0 0 0-3.878-.762z" transform="translate(-215.378 303.331)" style="fill:#9ba9ac"/>
            <g data-name="Group 594">
                <path data-name="Path 597" d="M86.79 33.813q-.358-.268-.738-.506a13.55 13.55 0 0 0-1.576.942 13.387 13.387 0 0 0-2.854-2.184 10.475 10.475 0 0 0-1.132.292 12.6 12.6 0 0 1 3.345 2.365 13.525 13.525 0 0 0-1.488 1.358 10.553 10.553 0 0 0-4.363-2.543q-.432.278-.835.6a9.767 9.767 0 0 1 4.675 2.535q-.159.189-.311.385a13.607 13.607 0 0 0-.878 1.275 7.8 7.8 0 0 0-5.26-2.413q-.295.376-.556.778h.2a7.012 7.012 0 0 1 5.046 2.183 13.3 13.3 0 0 0-1.953.932 5.008 5.008 0 0 0-3.106-1.1 5.084 5.084 0 0 0-1.259.152q-.161.448-.282.913a4.2 4.2 0 0 1 1.508-.278h.028a4.223 4.223 0 0 1 2.4.764 13.491 13.491 0 0 0-4.06 4.267 10.468 10.468 0 0 0 .286 1.1 12.695 12.695 0 0 1 4.638-4.99.394.394 0 0 0 .04-.025 12.5 12.5 0 0 1 1.552-.8 13.193 13.193 0 0 0-.886 2.763 10.583 10.583 0 0 0-4.2 5.5q.27.424.578.82a9.784 9.784 0 0 1 3.451-5.232 13.7 13.7 0 0 0-.094 1.519q0 .67.056 1.329a7.833 7.833 0 0 0-1.683 4.132q.364.293.753.553a7.047 7.047 0 0 1 1.082-3.546 13.228 13.228 0 0 0 1.964 4.947 10.494 10.494 0 0 0 1.132.246 12.66 12.66 0 0 1 4.78-19.033z" transform="translate(-54.488 299.567)" style="fill:#9ba9ac"/>
                <g data-name="Group 591">
                    <path data-name="Path 598" d="M318.11 43.883q.377.233.733.5a12.786 12.786 0 0 1 2.144-.817 10.5 10.5 0 0 0-1.046-.491 13.379 13.379 0 0 0-1.831.808z" transform="translate(-286.796 289.121)" style="fill:#9ba9ac"/>
                    <path data-name="Path 599" d="m242.907 439.944-.008-.011-.029.005z" transform="translate(-215.385 -87.537)" style="fill:#9ba9ac"/>
                </g>
                <path data-name="Path 600" d="M237.126 112.407a9.874 9.874 0 0 1 3.9-16.144q-.252-.333-.529-.646a10.673 10.673 0 0 0-4.139 17.125q.391-.153.768-.335z" transform="translate(-206.578 239.251)" style="fill:#9ba9ac"/>
                <g data-name="Group 592">
                    <path data-name="Path 601" d="M285.557 421.973q-.373.181-.761.333.305.344.648.672.255-.026.507-.063h.008l.242-.039.031-.006.221-.041a10.415 10.415 0 0 1-.896-.856z" transform="translate(-255.177 -70.49)" style="fill:#9ba9ac"/>
                    <path data-name="Path 602" d="M366.825 84.249a10.589 10.589 0 0 0-2.768.68q.275.309.525.639a10.04 10.04 0 0 1 2.952-.585q-.334-.383-.709-.734z" transform="translate(-330.403 250.041)" style="fill:#9ba9ac"/>
                </g>
                <path data-name="Path 603" d="M293.89 150.82a7.734 7.734 0 0 0-4.355-1.625 6.987 6.987 0 0 1 .8-1.946 9.8 9.8 0 0 1 4.934 2.1q.057-.461.075-.934a10.586 10.586 0 0 0-4.51-1.889 7.085 7.085 0 0 1 1.835-1.642 12.559 12.559 0 0 1 2.477 1.027q-.1-.516-.253-1.013a13.3 13.3 0 0 0-1.242-.52 6.972 6.972 0 0 1 .95-.32q-.148-.375-.324-.735a7.817 7.817 0 0 0-3.218 13.28q.318-.239.617-.5a7.018 7.018 0 0 1-2.286-6.124 7 7 0 0 1 2.052.391 6.064 6.064 0 0 0-.04.652 5.966 5.966 0 0 0 1.423 3.914q.261-.309.5-.638a5.218 5.218 0 0 1-1.135-3.271c0-.112.006-.225.014-.337a7.029 7.029 0 0 1 2.215 1.715q.178-.4.325-.811a7.767 7.767 0 0 0-.854-.774z" transform="translate(-258.738 193.975)" style="fill:#9ba9ac"/>
                <g data-name="Group 593">
                    <path data-name="Path 604" d="M400.09 301.289q-.138.412-.308.807a7.077 7.077 0 0 1 1.634 2.833c.2-.221.4-.466.587-.726a7.9 7.9 0 0 0-1.913-2.914z" transform="translate(-364.31 44.05)" style="fill:#9ba9ac"/>
                    <path data-name="Path 605" d="M415.389 239.413q-.009.468-.058.925a9.855 9.855 0 0 1 2.649 3.009c.132-.309.248-.623.349-.939a10.641 10.641 0 0 0-2.94-2.995z" transform="translate(-379.068 102.776)" style="fill:#9ba9ac"/>
                    <path data-name="Path 606" d="M410.261 173.76a13.46 13.46 0 0 0-1.828-1.5 5.132 5.132 0 0 1 .781-.053 5.26 5.26 0 0 1 .86.077 11.235 11.235 0 0 0-.2-.823 6 6 0 0 0-2.4.206q-.559-.316-1.147-.576.16.49.272 1a12.641 12.641 0 0 1 3.663 2.807 10.423 10.423 0 0 0-.001-1.138z" transform="translate(-370.525 167.619)" style="fill:#9ba9ac"/>
                    <path data-name="Path 607" d="M334.924 390.9q-.3.262-.612.5a7.839 7.839 0 0 0 1.5 1.16c.279-.13.563-.277.839-.437a7.045 7.045 0 0 1-1.727-1.223z" transform="translate(-302.173 -40.999)" style="fill:#9ba9ac"/>
                    <path data-name="Path 608" d="M396.059 139a7 7 0 0 1 2.036-.3h.045a7.1 7.1 0 0 1 1.278.125q-.183-.439-.4-.856a7.9 7.9 0 0 0-.869-.054h-.05a7.884 7.884 0 0 0-2.359.355q.171.361.319.73z" transform="translate(-360.47 199.105)" style="fill:#9ba9ac"/>
                    <path data-name="Path 609" d="M369.714 354.366q-.237.338-.5.656a6 6 0 0 0 1.827 1.571q.332-.263.643-.551a5.2 5.2 0 0 1-1.97-1.676z" transform="translate(-335.299 -6.325)" style="fill:#9ba9ac"/>
                </g>
            </g>
        </g>
    </g>
</svg>
