<svg xmlns="http://www.w3.org/2000/svg" width="30" height="30" viewBox="0 0 30 30">
    <g data-name="Group 5984">
        <path data-name="Rectangle 1824" style="fill:#fff" d="M0 0h30v30H0z"/>
        <g data-name="Group 584">
            <path d="M7.615 21.527v-3.515a1.626 1.626 0 0 1 1.621-1.62h3.294a1.626 1.626 0 0 1 1.632 1.62v3.5a1.411 1.411 0 0 0 1.406 1.406h2.247a3.966 3.966 0 0 0 2.8-1.145A3.908 3.908 0 0 0 21.776 19V9.015a2.834 2.834 0 0 0-1.026-2.18L13.115.773a3.57 3.57 0 0 0-4.536.081L1.108 6.835A2.836 2.836 0 0 0 0 9.015v9.975a3.947 3.947 0 0 0 3.961 3.933h2.2a1.411 1.411 0 0 0 1-.405 1.391 1.391 0 0 0 .415-.991z" transform="translate(4 4)" style="fill:#01896a"/>
            <path data-name="Intersection 1" d="M-9667.864-11452c0-.241.008-.481.022-.718l1.421-1.138a3.577 3.577 0 0 1 4.537-.081l7.635 6.062a2.838 2.838 0 0 1 1.024 2.181v4.075a10.99 10.99 0 0 1-3.642.617 11 11 0 0 1-10.997-10.998z" transform="translate(9679 11458.708)" style="fill:#27a88b"/>
        </g>
    </g>
</svg>
