<svg xmlns="http://www.w3.org/2000/svg" width="30" height="30" viewBox="0 0 30 30">
    <g data-name="Group 5979">
        <path data-name="Rectangle 1829" style="fill:#fff" d="M0 0h30v30H0z"/>
        <g data-name="Group 5918">
            <path data-name="Combined Shape" d="M13.663 1.851a1.84 1.84 0 1 1 1.846 1.839 1.848 1.848 0 0 1-1.846-1.839zM0 1.851A1.84 1.84 0 1 1 1.846 3.69 1.848 1.848 0 0 1 0 1.851z" transform="translate(7.749 23.175)" style="fill:#c3cdce"/>
            <path data-name="Fill 7" d="M20.04 18.251H6.79A3.1 3.1 0 0 1 3.705 15.4L2.587 2.129.754 1.813a.906.906 0 0 1-.584-.375.893.893 0 0 1-.157-.673A.925.925 0 0 1 .932 0a.961.961 0 0 1 .138.01l2.9.438a.923.923 0 0 1 .752.828L4.95 4a.744.744 0 0 0 .74.683h16.4a2.07 2.07 0 0 1 1.71.817 2.647 2.647 0 0 1 .466 2.1l-1.154 7.988a3.119 3.119 0 0 1-3.072 2.663zm-5.307-9.06a.9.9 0 0 0-.912.913.914.914 0 0 0 .912.914H18.1a.914.914 0 0 0 .912-.914.9.9 0 0 0-.912-.913z" transform="translate(3 3)" style="fill:#bac5c6"/>
            <path data-name="Subtraction 2" d="M-13193.959 1848.252h-13.25a3.083 3.083 0 0 1-2.1-.823 3.1 3.1 0 0 1-.985-2.026l-.042-.492a3.337 3.337 0 0 0 2.685 1.385h14.338a3.328 3.328 0 0 0 2.485-1.129l-.061.419a3.106 3.106 0 0 1-1.039 1.909 3.1 3.1 0 0 1-2.031.757z" transform="translate(13217 -1827)" style="fill:#a9b3b5;stroke:transparent;stroke-miterlimit:10"/>
        </g>
    </g>
</svg>
