<svg xmlns="http://www.w3.org/2000/svg" width="30" height="30" viewBox="0 0 30 30">
    <g data-name="Group 5978">
        <path data-name="Rectangle 1830" style="fill:#fff" d="M0 0h30v30H0z"/>
        <g data-name="Group 5819">
            <path data-name="Union 42" d="M-5193.029-13240.528a10.534 10.534 0 0 1-3.122-.7.761.761 0 0 1-.479-.709.745.745 0 0 1 .05-.26.756.756 0 0 1 .972-.43 9.231 9.231 0 0 0 2.689.609h.01a.747.747 0 0 1 .7.759v.04a.763.763 0 0 1-.749.7.173.173 0 0 1-.071-.009zm2.6-.862a.758.758 0 0 1 .529-.919 9.256 9.256 0 0 0 6.89-8.949 9.26 9.26 0 0 0-9.25-9.25 11.305 11.305 0 0 0-8.5 4.058h2.942a.755.755 0 0 1 .749.752.748.748 0 0 1-.739.759h-4.43a.743.743 0 0 1-.21-.03.9.9 0 0 1-.243-.119.663.663 0 0 1-.21-.229.871.871 0 0 1-.1-.31v-4.62a.755.755 0 0 1 .752-.752.755.755 0 0 1 .749.752v2.39a12.556 12.556 0 0 1 9.25-4.141 10.759 10.759 0 0 1 10.75 10.751 10.755 10.755 0 0 1-8.011 10.4 1.783 1.783 0 0 1-.19.018.755.755 0 0 1-.729-.562zm-8.51-1.437a11.009 11.009 0 0 1-2.18-2.351.735.735 0 0 1-.14-.422.736.736 0 0 1 .33-.619.762.762 0 0 1 1.042.189 8.944 8.944 0 0 0 1.891 2.021.755.755 0 0 1 .279.579.771.771 0 0 1-.16.479.743.743 0 0 1-.592.282.743.743 0 0 1-.471-.159zm-3.578-5.242a10.612 10.612 0 0 1-.482-3.179.758.758 0 0 1 .752-.752.757.757 0 0 1 .749.752 9.34 9.34 0 0 0 .409 2.729.844.844 0 0 1 .03.229.741.741 0 0 1-.52.709.77.77 0 0 1-.229.029.73.73 0 0 1-.711-.518z" transform="translate(5207.002 13266)" style="fill:#8f9da0;stroke:#8f9da0;stroke-width:.4px"/>
            <path d="M8.814 4.407A4.407 4.407 0 1 1 4.407 0a4.407 4.407 0 0 1 4.407 4.407z" transform="translate(10.345 10.343)" style="fill:#c3cdce"/>
        </g>
    </g>
</svg>
