<svg xmlns="http://www.w3.org/2000/svg" width="30" height="30" viewBox="0 0 30 30">
    <g data-name="Group 5982">
        <path data-name="Rectangle 1826" style="fill:#fff" d="M0 0h30v30H0z"/>
        <g data-name="Iconly/Bulk/Work">
            <path data-name="Fill 1" d="M.1-1.342c.053 2.493.1 8.1.123 8.57a4.961 4.961 0 0 0 1.06 2.739 3.931 3.931 0 0 0 3.292 1.455c1.978.011 4.159.011 6.277.011s4.19 0 5.933-.011a3.978 3.978 0 0 0 3.293-1.455 4.815 4.815 0 0 0 1.038-2.739c.021-.4-.064-5.75 0-7.953z" transform="translate(4 13.681)" style="fill:#a9b3b5"/>
            <path data-name="Fill 1" d="M0 0c.053 2.493.174 6.269.2 6.739a4.961 4.961 0 0 0 1.06 2.739 3.931 3.931 0 0 0 3.292 1.455c1.978.011 4.159.011 6.277.011s4.19 0 5.933-.011a3.978 3.978 0 0 0 3.288-1.455 4.815 4.815 0 0 0 1.038-2.739c.021-.4.156-4.536.22-6.739z" transform="translate(4 12.271)" style="fill:#c3cdce;opacity:.998"/>
            <path data-name="Fill 4" d="M0 .8v1.38a.8.8 0 1 0 1.6 0V.8A.8.8 0 1 0 0 .8" transform="translate(13.855 15.443)" style="fill:#8f9da0"/>
            <path data-name="Fill 6" d="M13.3 11.958a.8.8 0 0 1-.775-.6 1.923 1.923 0 0 0-1.872-1.443 1.945 1.945 0 0 0-1.9 1.447.8.8 0 0 1-.773.588.832.832 0 0 1-.108-.007A18.285 18.285 0 0 1 .359 9.147.8.8 0 0 1 0 8.479V6.813a4.069 4.069 0 0 1 4.068-4.06h2.1A3.155 3.155 0 0 1 9.278 0h2.752a3.154 3.154 0 0 1 3.113 2.753h2.107a4.063 4.063 0 0 1 4.057 4.06v1.666a.8.8 0 0 1-.358.668 18.253 18.253 0 0 1-7.545 2.8.737.737 0 0 1-.104.011zM9.278 1.6a1.556 1.556 0 0 0-1.5 1.153h5.742A1.556 1.556 0 0 0 12.03 1.6z" transform="translate(4 4)" style="fill:#8f9da0"/>
        </g>
    </g>
</svg>
