<svg xmlns="http://www.w3.org/2000/svg" width="42" height="42" viewBox="0 0 42 42">
    <g data-name="Group 5882">
        <g data-name="Group 5880" transform="translate(-1245.592 -19.592)">
            <rect data-name="Rectangle 241" width="42" height="42" rx="21" transform="translate(1245.592 19.592)" style="fill:#00745a"/>
        </g>
        <g data-name="Iconly/Bold/Notification">
            <path data-name="Notification" d="M7.983 19.967a3.619 3.619 0 0 1-1.714-.733 1.551 1.551 0 0 1-.7-1.173c0-.5.462-.734.889-.833a25.955 25.955 0 0 1 4.046 0c.427.1.889.329.889.833a1.553 1.553 0 0 1-.695 1.174 3.635 3.635 0 0 1-1.713.732A4 4 0 0 1 8.48 20a3.667 3.667 0 0 1-.497-.033zm-4.219-4.22a4.535 4.535 0 0 1-2.9-1.413A3.615 3.615 0 0 1 0 11.956a3.368 3.368 0 0 1 .731-2.31A3.8 3.8 0 0 0 1.794 6.8v-.43a5.625 5.625 0 0 1 1.283-3.858A7.073 7.073 0 0 1 8.456 0h.09a7.041 7.041 0 0 1 5.467 2.624 5.546 5.546 0 0 1 1.2 3.746v.43a3.889 3.889 0 0 0 1.062 2.849A3.364 3.364 0 0 1 17 11.956a3.614 3.614 0 0 1-.863 2.379 4.539 4.539 0 0 1-2.9 1.413c-1.571.133-3.144.247-4.737.247a41.689 41.689 0 0 1-4.736-.248z" style="fill:#fff" transform="translate(12.5 11)"/>
        </g>
    </g>
</svg>
