<svg xmlns="http://www.w3.org/2000/svg" width="72" height="72" viewBox="0 0 72 72">
    <defs>
        <filter id="e8rr5ihcba" x="0" y="0" width="72" height="72" filterUnits="userSpaceOnUse">
            <feOffset dy="4"/>
            <feGaussianBlur stdDeviation="5" result="blur"/>
            <feFlood flood-opacity=".122"/>
            <feComposite operator="in" in2="blur"/>
            <feComposite in="SourceGraphic"/>
        </filter>
    </defs>
    <g data-name="Group 5881">
        <g style="filter:url(#e8rr5ihcba)">
            <circle data-name="Ellipse 89" cx="21" cy="21" r="21" transform="translate(15.002 10.999)" style="fill:#fff"/>
        </g>
        <path data-name="Path 273" d="M61.614 192.255a2.21 2.21 0 0 0-.636-.222c-.283-.084-.373-.428-.478-.468-.211-.082-.406.239-.534.2s-.18-.461-.285-.5c-.2-.076-.423.245-.552.2s-.2-.454-.3-.492c-.213-.078-.431.257-.559.215s-.164-.472-.268-.51c-.227-.085-.435.256-.634.223a1.82 1.82 0 0 1-.773-.308l-.339-.25c-.037-.014-.13-.037-.108.15.054.438.815.754 1.691 1l2.289.734c.327.15.467.329.349.5-.091.135-.315.144-.56.029-.261-.123-.288-.327-.453-.365-.2-.048-.457.332-.618.3-.205-.048-.228-.485-.41-.532-.241-.064-.508.305-.666.272s-.219-.5-.37-.538c-.253-.065-.511.322-.67.289s-.248-.493-.382-.546c-.252-.1-.59.277-.939.093-1.131-.756-.912-1.146-1.777-1.4a3.49 3.49 0 0 0-1.328.061c-.766.079-.735-.576-.735-.576a1.57 1.57 0 0 0 1.105-.02 2.191 2.191 0 0 1 1.769 0 1.885 1.885 0 0 0 1.321-.037.406.406 0 0 1 .427.047c.22.14.431.291.539.239.167-.081.106-.523.4-.617.131-.044.489.312.646.253s.109-.523.4-.618c.132-.042.49.313.647.254s.109-.524.4-.619c.132-.042.491.314.647.255s.109-.525.395-.62c.131-.042.491.314.647.255s.134-.179.261-.494a.451.451 0 0 1 .135-.175.686.686 0 0 0 .284-.787c-.142-.308-.434-.3-1.076-.168l-3.893.841c-.523-.96-.877-.327-1.654-.419a2.294 2.294 0 0 0-2.544.6 2.236 2.236 0 0 0-1.719.226 11.2 11.2 0 0 0-4.929-1.035 23.821 23.821 0 0 0-5.555.918c-.752.2-1.439.154-1.606-.289-.168-.463.429-.948 1.565-1.487 2.818-1.338 4.7-1.023 8.488-3.01 2.04-1.059 2.173-2.309 2.171-2.612a.179.179 0 0 0-.336-.106c-.683.945-.859.867-1.072.655-.284-.281-.476.166-.781.393-.232.17-.278-.036-.466-.156-.32-.205-.591.4-.866.524-.319.142-.377-.016-.485-.128a.221.221 0 0 0-.314.017c-.646.608-.741.538-.934.335-.144-.151-.222-.256-.64.165-.241.241-.645.528-.767.226s-.229-.479-.821.057c-.351.317-.59.342-.7.193s-.089-.563-.645-.13c-.5.388-.748.622-.911.245s-.525-.057-.8.205c-.145.139-.388.467-.582.133s-.505.011-.9.429c-.224.235-.375.132-.6-.025-.256-.182-.526.468-.9.856-.07.065-.172.112-.4-.043-.289-.2-.748.81-.878 1.056-.212.4-.448-.1-.7.257a6.761 6.761 0 0 0-1.374 3.426 4.914 4.914 0 0 0 1.279 4.177s-.091.222-.2.5a2.311 2.311 0 0 0-.027 1.787c.26.489.869 1.3 1.1.534.11-.373.213-.354.577-.1.548.384.414-.315.524-.521.077-.146.172-.2.624.093.26.168.343-.059.42-.378.238-.985-.232-1.226-.694-1.32a2.243 2.243 0 0 0-.693-.011c.74-1.118.831-1.728 0-2.292a.381.381 0 0 1 .33.017 1.01 1.01 0 0 1 .483.43 1.453 1.453 0 0 1-.078 1.443 1.126 1.126 0 0 1 1.049.66 15.057 15.057 0 0 0 3.731.136c.373-.059.54-.392.912-.736.4-.374.876-.779 1.3-.475a1.73 1.73 0 0 0-1.22 1.542 1.208 1.208 0 0 0 .6 1.048 2.277 2.277 0 0 1 .575 1.079c.16.444.5.458.572.037.1-.583.281-.474.508-.225.276.3.492.255.493-.18 0-.411.125-.613.588-.139.188.193.415.185.411-.234 0-.512.227-.463.517-.244.1.077.171.132.225.129.228-.012.378-.452.2-.8-.087-.169-.215-.433-1.4-.675-.388-.079-.321-.346-.321-.346 2.887.139 5.334-.22 6.944-1.19a28.49 28.49 0 0 0 5.821.506 5.523 5.523 0 0 0 2.269-.337c.627-.3.532-.751.242-.931m-5.989-4.453a.35.35 0 0 1 .3-.242.358.358 0 0 1 .324.312l-.532.112c-.15.029-.145-.052-.092-.187m-1.369-.035a.7.7 0 0 1 .637.407l-.8.172c-.158.033-.261-.033-.277-.157a.429.429 0 0 1 .436-.423m-15.307-3.356a3.249 3.249 0 0 1 .8-.261c.055-.009.091.019.078.063l-.126.551a.066.066 0 0 1-.1.046l-.654-.313c-.043-.024-.046-.064 0-.086m-1.206.564a3.186 3.186 0 0 1 .8-.259c.054-.01.089.019.079.064l-.127.55a.064.064 0 0 1-.1.046l-.654-.314c-.051-.023-.052-.065 0-.088m.521 1.245c.056-.01.092.019.08.063l-.128.551a.063.063 0 0 1-.1.046l-.654-.314c-.05-.022-.052-.063 0-.087a3.186 3.186 0 0 1 .8-.259m-.506 1.045-.127.55a.064.064 0 0 1-.1.045l-.654-.314c-.049-.022-.056-.063 0-.087a3.263 3.263 0 0 1 .8-.258c.054-.01.09.018.078.064m-1.1-1.568a3.113 3.113 0 0 1 .8-.258c.055-.011.089.019.078.063l-.126.55a.066.066 0 0 1-.1.047l-.653-.314c-.056-.024-.05-.063 0-.088m-.833.947a3.146 3.146 0 0 1 .8-.259c.055-.011.091.018.08.055l-.127.552a.065.065 0 0 1-.1.047l-.653-.315c-.049-.022-.056-.063 0-.086m-.313 1.093a3.26 3.26 0 0 1 .8-.259c.054-.011.091.019.078.063l-.127.55a.066.066 0 0 1-.1.047l-.655-.314c-.048-.023-.049-.061 0-.087m.143 1.185c-.049-.025-.05-.064 0-.088a3.189 3.189 0 0 1 .8-.26c.055-.01.091.019.08.063l-.129.552a.065.065 0 0 1-.1.046l-.653-.312m1.421 1.324a.064.064 0 0 1-.1.045l-.655-.314c-.048-.022-.05-.063 0-.087a3.178 3.178 0 0 1 .8-.257c.056-.011.091.017.081.055l-.129.553M37 188.62c-.048-.022-.049-.064 0-.086a3.177 3.177 0 0 1 .8-.26c.054-.01.089.02.08.064l-.127.552a.064.064 0 0 1-.1.045l-.655-.314m1.258 2.233a.066.066 0 0 1-.1.046l-.653-.314c-.05-.024-.052-.064 0-.089a3.3 3.3 0 0 1 .8-.258c.054-.01.091.02.08.064l-.129.551m.263-1.158a.066.066 0 0 1-.1.047l-.654-.314c-.056-.022-.056-.064 0-.087a3.161 3.161 0 0 1 .8-.258c.054-.012.09.018.078.061l-.127.553m1.181.566-.127.551a.065.065 0 0 1-.1.046l-.652-.313c-.05-.023-.052-.063 0-.089a3.246 3.246 0 0 1 .8-.26c.056-.009.093.021.08.064m.054-.616-.655-.313c-.05-.022-.056-.065 0-.087a3.243 3.243 0 0 1 .8-.26c.056-.009.091.019.08.064l-.128.55a.063.063 0 0 1-.1.046m1.029 1.481-.127.55a.065.065 0 0 1-.1.047l-.653-.314c-.051-.023-.051-.063 0-.087a3.245 3.245 0 0 1 .8-.259c.054-.012.091.019.078.064m.262-1.193-.127.551a.065.065 0 0 1-.1.044l-.653-.314c-.05-.022-.056-.063 0-.085a3.227 3.227 0 0 1 .8-.261c.056-.01.092.021.08.065m.16-.709a.064.064 0 0 1-.1.046l-.655-.314c-.049-.021-.052-.063 0-.087a3.248 3.248 0 0 1 .8-.259c.056-.009.09.02.079.065l-.128.549m.817 2.05a.066.066 0 0 1-.1.047l-.654-.314c-.05-.023-.051-.064 0-.088a3.111 3.111 0 0 1 .8-.258c.054-.01.09.019.08.063l-.129.551m.261-1.154a.064.064 0 0 1-.1.045l-.652-.315c-.049-.023-.052-.062 0-.086a3.1 3.1 0 0 1 .8-.259c.055-.01.092.019.08.064l-.129.55m.181-1.161-.653-.314c-.05-.023-.053-.056 0-.087a3.191 3.191 0 0 1 .8-.258c.056-.01.09.019.079.065l-.127.55a.064.064 0 0 1-.1.047m1.082 1.472-.127.551a.063.063 0 0 1-.1.046l-.655-.312c-.049-.024-.05-.064 0-.087a3.124 3.124 0 0 1 .8-.26c.054-.01.091.021.078.064m.252-1.154-.126.552a.064.064 0 0 1-.1.045l-.653-.314c-.056-.024-.052-.064 0-.086a3.124 3.124 0 0 1 .8-.26c.055-.009.089.021.078.063m.039-.547-.655-.314c-.049-.023-.051-.064 0-.087a3.256 3.256 0 0 1 .8-.259c.054-.01.09.019.078.063l-.127.552a.066.066 0 0 1-.1.045m1.061 1.565-.126.551a.065.065 0 0 1-.1.045l-.654-.314c-.049-.023-.05-.063 0-.086a3.134 3.134 0 0 1 .8-.261c.055-.009.091.02.078.064m.252-1.144-.126.552a.066.066 0 0 1-.1.045l-.653-.314c-.051-.023-.051-.064 0-.087a3.155 3.155 0 0 1 .8-.26c.056-.01.091.02.079.064m.133-.576a.064.064 0 0 1-.1.048l-.655-.313c-.05-.024-.051-.063 0-.088a3.151 3.151 0 0 1 .8-.259c.054-.009.09.018.078.064l-.129.551m.959 1.772-.127.551a.066.066 0 0 1-.1.046l-.653-.315c-.049-.022-.05-.064 0-.087a3.191 3.191 0 0 1 .8-.26c.055-.01.092.019.08.064m.26-1.159-.127.55a.066.066 0 0 1-.1.047l-.654-.316c-.049-.022-.056-.064 0-.087a3.184 3.184 0 0 1 .8-.258c.055-.012.089.019.078.064m.262-1.136-.127.551a.065.065 0 0 1-.1.046l-.653-.314c-.05-.022-.052-.064 0-.087a3.207 3.207 0 0 1 .8-.26c.055-.009.091.021.078.064m.912 1.931a.065.065 0 0 1-.1.045l-.653-.314c-.05-.023-.056-.063 0-.087a3.119 3.119 0 0 1 .8-.259c.056-.009.092.019.081.063l-.129.552m.388-1.719-.125.551a.066.066 0 0 1-.1.046l-.654-.314c-.05-.024-.05-.065 0-.088a3.138 3.138 0 0 1 .8-.258c.054-.011.091.018.079.061m1.239.43-.126.551a.065.065 0 0 1-.1.046l-.653-.314c-.051-.023-.051-.063 0-.088a3.23 3.23 0 0 1 .8-.258c.056-.012.091.019.078.063" transform="translate(-11.885 -157.942)" style="fill:#105a33"/>
        <path data-name="Path 274" d="M499.684 420.031a2.188 2.188 0 0 0-1.769 0 1.563 1.563 0 0 1-1.105.02s-.03.656.735.577a3.482 3.482 0 0 1 1.328-.063c.864.254.647.644 1.777 1.4.349.183.686-.195.938-.093.134.053.222.512.382.546s.417-.354.67-.288c.15.038.21.505.369.537s.426-.336.667-.271c.182.047.2.484.41.531.16.037.416-.343.617-.3.164.038.191.242.453.366.244.115.469.106.56-.029.117-.173-.022-.352-.349-.5a19.541 19.541 0 0 0-2.289-.734c-.875-.25-1.638-.566-1.691-1-.022-.184.069-.165.106-.151-.336-.247-.407-.482-.39-.611l-.1.028a1.893 1.893 0 0 1-1.322.036" transform="translate(-457.118 -388.168)" style="fill:#e72734"/>
    </g>
</svg>
